PathFileType	4	(X/Y/Z)	C:/Users/beibeiliu/ov580/test_trc/User3\out9_training_dense_right.trc
DataRate	CameraRate	NumFrames	NumMarkers	Units	OrigDataRate	OrigDataStartFrame	OrigNumFrames
120	120	17	19	mm	120	188	500
Frame#	Time	ThumbCMC			ThumbMCP			ThumbIP			ThumbTip			IndexMCP			IndexPIP			IndexTip			MiddleMCP			MiddlePIP			MiddleTip			RingMCP			RingPIP			RingTip			PinkyMCP			PinkyPIP			PinkyTip			BackHand1			BackHand2			BackHand3	
		X0	Y0	Z0	X1	Y1	Z1	X2	Y2	Z2	X3	Y3	Z3	X4	Y4	Z4	X5	Y5	Z5	X6	Y6	Z6	X7	Y7	Z7	X8	Y8	Z8	X9	Y9	Z9	X10	Y10	Z10	X11	Y11	Z11	X12	Y12	Z12	X13	Y13	Z13	X14	Y14	Z14	X15	Y15	Z15	X16	Y16	Z16	X17	Y17	Z17	X18	Y18	Z18	
187	1.55833	147.468	47.8444	81.8764	136.321	38.8444	50.877	124.421	31.7886	25.4087	121.432	23.7283	2.11882	171.016	73.7041	12.3008	158.486	73.3066	-18.4923	157.908	65.933	-41.4522	200.256	67.5502	9.15787	200.76	65.397	-22.6926	204.556	57.6604	-52.5045	210.129	40.6684	13.0318	202.825	19.6402	-2.01016	186.285	-10.9298	2.64746	224.976	25.2763	26.6901	210.671	2.751	18.3275	188.538	-10.5544	32.7731	214.087	61.9406	71.2456	209.06	57.924	98.8238	178.626	70.8396	78.4959	
188	1.56667	149.373	48.964	83.0659	132.859	41.1646	53.4472	128.267	36.5089	22.21	127.203	27.4457	0.358295	169.043	79.9926	13.4762	161.883	77.6433	-16.0151	157.888	69.1022	-39.0871	199.153	72.6017	7.99354	203.042	67.383	-16.7402	200.019	58.283	-52.3925	207.208	44.6029	15.3363	201.6	21.1188	-1.50786	184.53	-7.79621	4.2363	220.167	31.3561	28.4787	205.015	8.83004	16.8498	183.742	-3.71433	35.3021	213.358	60.4833	73.6604	209.286	57.9166	99.3123	183.215	70.5624	85.8078	
189	1.575	146.262	52.6335	80.5894	135.115	45.6942	50.064	128.357	40.9172	19.2816	133.877	32.7744	-1.7192	169.845	84.1907	19.1203	159.562	85.3859	-12.9091	153.388	75.735	-35.0285	198.804	78.5693	10.9574	197.148	76.0835	-20.2519	194.574	66.5493	-48.3668	206.33	48.5209	13.6774	196.557	27.1378	-1.80932	184.196	-0.981943	5.17774	222.611	33.8448	30.5257	201.945	15.0821	17.8552	186.033	4.10444	36.3672	215.049	63.8209	74.4998	208.744	57.6301	103.111	179.528	73.3489	86.1463	
190	1.58333	147.675	53.5442	84.0217	136.959	48.5715	49.6051	130.452	43.7622	21.6023	135.285	37.661	-4.44911	169.019	90.6171	18.4703	161.082	91.6395	-10.3315	155.352	81.8116	-36.5468	199.948	83.2123	15.6892	201.169	81.4143	-18.6187	197.577	70.4436	-49.7155	207.223	53.9648	13.6913	198.998	33.9068	-2.59052	181.893	3.75874	3.03601	220.133	42.0424	30.3601	204.806	20.4169	15.9723	188.121	8.61494	36.2828	215.599	66.252	72.2255	208.884	57.8542	105.179	178.926	76.7306	86.7795	
191	1.59167	150.309	56.8703	77.8161	139.051	49.2154	51.9732	129.987	46.7949	16.9987	130.437	39.9335	-2.01809	173.283	93.7491	14.6365	164.181	95.9134	-10.2491	156.84	89.9288	-33.5928	203.795	88.5292	11.4812	204.524	88.7176	-15.2983	199.139	79.0799	-48.4755	212.538	59.5239	17.1601	201.76	39.589	-4.26413	184.521	12.1725	-1.03129	225.146	43.2298	27.2389	209.679	21.2641	15.2415	187.263	13.8525	35.0713	212.926	72.3315	73.8877	207.496	60.6042	103.035	183.142	77.349	83.1082	
192	1.6	149.157	58.148	78.0837	134.857	50.0309	48.9871	132.876	47.7343	18.7945	128.613	40.5664	-1.67522	170.475	94.2726	17.0828	168.323	96.3317	-8.47482	160.281	91.4051	-37.9177	205.811	90.4735	13.6913	205.304	91.9096	-16.1482	202.989	85.3638	-48.6476	212.399	61.589	13.5665	209.14	41.2508	-4.62442	187.131	13.663	-3.81274	223.458	46.8765	26.6175	211.557	23.7071	13.8364	194.103	10.0206	31.9243	214.082	71.2439	73.5673	208.308	63.9467	100.08	180.546	79.004	87.5144	
193	1.60833	151.417	55.8159	81.0339	137.443	49.6609	46.6133	128.918	44.0047	24.0273	124.821	39.1142	-0.211899	173.196	90.7235	18.0871	166.621	94.0326	-9.33627	159.623	90.486	-37.9952	204.416	88.9562	12.4128	206.352	91.3357	-12.7514	206.589	86.401	-46.2503	216.937	60.7957	18.9237	208.658	40.327	-6.01362	192.961	11.0288	-6.51229	230.469	42.8421	31.2889	215.796	20.3931	14.2657	195.943	6.52443	31.1063	218.522	72.5782	71.3908	212.782	62.9426	104.319	181.863	78.2723	86.581	
194	1.61667	149.289	55.916	78.082	136.453	46.9297	48.2316	126.86	42.101	21.3756	122.221	35.2196	3.17763	177.137	86.5581	10.5746	168.798	88.726	-14.2469	167.935	86.9406	-38.1669	209.767	84.1788	9.89453	214.189	85.1107	-16.2764	214.896	84.0176	-47.2424	219.251	55.3409	16.2977	217.133	35.436	-4.61873	204.344	7.1524	-7.97675	228.981	41.0471	27.8184	224.169	18.5161	15.8239	200.675	4.19086	22.8581	216.313	69.9422	69.3109	211.915	65.3891	101.416	182.353	79.3774	80.653	
195	1.625	152.517	53.2966	74.0828	139.49	41.8947	46.404	127.755	34.4996	24.3478	121.505	27.8992	3.53692	177.125	77.9787	6.8898	169.227	80.7848	-16.8126	164.547	82.1254	-43.3218	207.417	77.2515	7.40494	213.569	77.8487	-18.7643	221.177	77.2545	-45.5804	222.983	47.4759	15.118	221.58	29.4172	-4.65724	208.961	0.0160124	-10.6817	233.992	34.5834	29.4566	229.635	11.6058	17.2482	203.089	-5.01107	20.036	213.058	66.5585	70.1291	211.041	62.7852	99.1144	183.236	74.1618	78.7328	
196	1.63333	151.172	49.2224	75.0202	138.931	36.788	47.2943	126.854	28.1222	25.606	114.103	21.0674	8.33678	175.807	73.165	5.02952	170.31	73.8973	-17.6577	166.025	77.7589	-41.704	209.427	70.6676	5.12746	215.668	72.1223	-19.7518	222.392	73.7277	-50.6895	221.391	45.5278	15.0221	225.293	23.1585	-4.68502	215.165	-5.8639	-9.88399	232.593	32.384	31.7843	229.391	5.53783	17.2501	213.905	-14.1481	20.132	219.055	65.4968	67.4916	210.939	61.3807	101.106	183.485	71.3216	75.7067	
197	1.64167	150.755	46.4905	76.2363	136.264	33.667	46.7328	123.054	25.2232	24.9092	114.889	15.5712	11.5971	175.908	67.7705	6.28415	170.547	69.8588	-21.1839	170.055	71.9523	-41.0656	205.973	67.2067	8.26553	212.305	67.7669	-17.183	222.794	69.1521	-51.4691	220.102	43.1992	14.6229	225.164	19.0944	-5.24053	214.03	-6.3763	-10.6561	236.927	28.9112	34.6288	229.985	3.7776	17.6317	211.573	-13.2163	21.2779	215.569	62.2438	65.5441	206.544	61.5859	99.6736	179.569	72.016	73.9862	
198	1.65	151.562	45.5672	75.9046	138.312	32.1364	52.7969	122.996	23.2054	27.0045	109.054	14.2839	10.1003	173.497	66.7	8.41803	170.839	66.8763	-20.6371	164.861	70.0806	-45.3474	210.169	64.3235	6.71863	210.206	65.9027	-21.7726	218.44	66.5096	-50.9417	221.791	40.857	16.0886	222.261	17.6662	-6.9106	210.905	-7.05739	-8.48654	235.001	27.3809	31.4977	229.319	1.58299	18.0468	212.49	-16.0892	21.8838	214.614	60.9647	67.7816	208.005	62.6935	94.6482	182.234	68.5381	75.7071	
199	1.65833	151.495	46.4077	72.4384	133.905	33.545	47.0507	124.597	24.6142	22.9129	114.13	15.268	7.78301	175.114	67.1692	3.85846	165.573	67.6009	-17.9868	165.372	66.5301	-42.72	207.441	66.0867	4.78499	208.602	65.024	-19.9184	218.612	60.8172	-52.7477	219.833	41.5656	14.4882	216.555	19.887	-7.6238	207.154	-11.1698	-6.33068	233.514	28.5566	32.3887	225.59	3.21375	15.4578	206.456	-14.016	22.0167	217.12	61.5793	65.0371	208.363	60.504	98.0576	177.755	71.756	75.0081	
200	1.66667	150.431	45.8733	77.4029	135.998	34.1979	53.7875	124.741	26.7575	24.1328	117.415	17.4619	6.30816	171.41	70.7512	9.99409	165.995	70.0726	-18.8613	163.043	64.4011	-42.6705	206.67	67.4222	6.42987	209.405	65.711	-19.4422	213.592	57.001	-51.1023	218.536	42.6252	14.8859	215.75	18.1484	-4.14498	202.679	-12.1989	-1.90816	232.766	30.141	31.4723	220.488	6.76545	15.5585	202.139	-11.8318	25.4966	211.673	64.7429	67.9751	210.303	58.5642	102.484	180.696	70.5715	77.9905	
201	1.675	147.057	46.8584	82.6105	134.127	36.8351	51.4879	126.617	29.8691	27.8866	126.492	19.7675	3.87326	169.986	76.408	15.5876	165.741	75.9133	-16.3976	159.935	63.5511	-39.2748	204.603	72.9198	11.8509	202.138	72.7651	-19.1158	204.549	53.0744	-51.2401	216.606	46.661	19.4238	214.302	23.7336	-1.1704	195.625	-4.28765	1.36666	228.756	34.5392	33.3251	221.057	11.6946	17.0321	198.882	-4.96669	31.3902	215.081	63.3952	71.7095	207.234	60.3493	101.981	175.631	69.6211	83.7694	
202	1.68333	147.897	46.867	80.7393	135.577	36.5248	53.3869	130.201	30.3526	22.9384	141.535	21.4391	2.45798	166.85	82.8348	15.7331	163.117	79.0978	-14.1963	159.469	59.7298	-35.7742	197.581	78.9967	16.6016	201.537	76.0289	-18.0751	194.719	52.1324	-42.1786	210.698	52.7734	17.4901	207.88	26.2948	-1.00033	193.608	1.46558	8.04472	227.397	37.5052	31.4706	214.523	16.7049	17.2387	196.732	-0.447212	36.0119	212.067	66.9996	76.4376	209.053	57.7912	103.137	176.642	70.9324	85.5545	
203	1.69167	143.935	48.4896	79.3638	132.984	37.5268	51.4358	136.113	30.5265	21.2756	149.819	21.1264	0.813216	166.698	84.3109	15.6302	159.973	80.5592	-13.464	154.942	52.8097	-32.3958	197.956	82.6468	12.9645	197.071	76.0911	-17.1972	192.314	44.149	-36.8495	211.734	54.6399	18.0444	203.807	28.3619	-1.00945	190.199	3.98353	16.199	222.832	40.3564	27.6489	209.252	18.1826	19.0261	194.852	5.56981	38.6324	210.057	68.3228	74.9242	208.976	57.9465	107.353	175.428	74.595	84.9741	
